<svg width="40" height="40" viewBox="0 0 40 40" fill="none" xmlns="http://www.w3.org/2000/svg">
<path d="M20 0C21.8472 0 23.6181 0.236111 25.3125 0.708333C27.0069 1.18056 28.6042 1.84722 30.1042 2.70833C31.6042 3.56944 32.9514 4.61111 34.1458 5.83333C35.3403 7.05556 36.3819 8.40972 37.2708 9.89583C38.1597 11.3819 38.8333 12.9722 39.2917 14.6667C39.75 16.3611 39.9861 18.1389 40 20C40 21.8472 39.7639 23.6181 39.2917 25.3125C38.8194 27.0069 38.1528 28.6042 37.2917 30.1042C36.4306 31.6042 35.3889 32.9514 34.1667 34.1458C32.9444 35.3403 31.5903 36.3819 30.1042 37.2708C28.6181 38.1597 27.0278 38.8333 25.3333 39.2917C23.6389 39.75 21.8611 39.9861 20 40C18.1528 40 16.3819 39.7639 14.6875 39.2917C12.9931 38.8194 11.3958 38.1528 9.89583 37.2917C8.39583 36.4306 7.04861 35.3889 5.85417 34.1667C4.65972 32.9444 3.61806 31.5903 2.72917 30.1042C1.84028 28.6181 1.16667 27.0278 0.708333 25.3333C0.25 23.6389 0.0138889 21.8611 0 20C0 18.1528 0.236111 16.3819 0.708333 14.6875C1.18056 12.9931 1.84722 11.3958 2.70833 9.89583C3.56944 8.39583 4.61111 7.04861 5.83333 5.85417C7.05556 4.65972 8.40972 3.61806 9.89583 2.72917C11.3819 1.84028 12.9722 1.16667 14.6667 0.708333C16.3611 0.25 18.1389 0.0138889 20 0ZM21.3333 37.2917C22.75 37.1806 24.1111 36.9097 25.4167 36.4792C26.7222 36.0486 27.9444 35.4722 29.0833 34.75C30.2222 34.0278 31.2778 33.1944 32.25 32.25C33.2222 31.3056 34.0556 30.2569 34.75 29.1042C35.4444 27.9514 36.0139 26.7222 36.4583 25.4167C36.9028 24.1111 37.1806 22.75 37.2917 21.3333H34.6667V18.6667H37.2917C37.1806 17.25 36.9097 15.8889 36.4792 14.5833C36.0486 13.2778 35.4722 12.0556 34.75 10.9167C34.0278 9.77778 33.1944 8.72222 32.25 7.75C31.3056 6.77778 30.2569 5.94444 29.1042 5.25C27.9514 4.55556 26.7222 3.98611 25.4167 3.54167C24.1111 3.09722 22.75 2.81944 21.3333 2.70833V5.33333H18.6667V2.70833C17.25 2.81944 15.8889 3.09028 14.5833 3.52083C13.2778 3.95139 12.0556 4.52778 10.9167 5.25C9.77778 5.97222 8.72222 6.80556 7.75 7.75C6.77778 8.69444 5.94444 9.74306 5.25 10.8958C4.55556 12.0486 3.98611 13.2778 3.54167 14.5833C3.09722 15.8889 2.81944 17.25 2.70833 18.6667H5.33333V21.3333H2.70833C2.81944 22.75 3.09028 24.1111 3.52083 25.4167C3.95139 26.7222 4.52778 27.9444 5.25 29.0833C5.97222 30.2222 6.80556 31.2778 7.75 32.25C8.69444 33.2222 9.74306 34.0556 10.8958 34.75C12.0486 35.4444 13.2778 36.0139 14.5833 36.4583C15.8889 36.9028 17.25 37.1806 18.6667 37.2917V34.6667H21.3333V37.2917ZM23.1042 16.8958L29.3333 29.3333L16.8958 23.1042L10.6667 10.6667L23.1042 16.8958ZM24.4167 24.4167L21.4792 18.5208L15.5833 15.5833L18.5208 21.4792L24.4167 24.4167Z" fill="url(#paint0_linear_412_258)"/>
<defs>
<linearGradient id="paint0_linear_412_258" x1="-1.51515" y1="3.34532e-07" x2="50.8904" y2="12.5743" gradientUnits="userSpaceOnUse">
<stop offset="0.216705" stop-color="#7ED56F"/>
<stop offset="0.794526" stop-color="#28B485"/>
</linearGradient>
</defs>
</svg>
