<svg width="47" height="40" viewBox="0 0 47 40" fill="none" xmlns="http://www.w3.org/2000/svg">
<path d="M34.0381 0C29.5706 0 25.686 2.01463 23.4012 5.39078C21.1164 2.01463 17.2318 0 12.7643 0C9.38019 0.00394121 6.13584 1.35001 3.74292 3.74292C1.35001 6.13584 0.00394121 9.38019 0 12.7643C0 18.9762 3.87183 25.4413 11.5091 31.9766C15.0088 34.9587 18.7891 37.5948 22.797 39.848C22.9827 39.9478 23.1903 40 23.4012 40C23.612 40 23.8196 39.9478 24.0054 39.848C28.0133 37.5948 31.7936 34.9587 35.2932 31.9766C42.9305 25.4413 46.8024 18.9762 46.8024 12.7643C46.7984 9.38019 45.4524 6.13584 43.0594 3.74292C40.6665 1.35001 37.4222 0.00394121 34.0381 0ZM23.4012 37.2526C19.9102 35.2379 2.55286 24.618 2.55286 12.7643C2.55567 10.0569 3.63242 7.46123 5.54682 5.54682C7.46123 3.63242 10.0569 2.55567 12.7643 2.55286C17.0786 2.55286 20.7015 4.85681 22.2205 8.56696C22.3167 8.80107 22.4802 9.00131 22.6905 9.14223C22.9007 9.28315 23.1481 9.35839 23.4012 9.35839C23.6543 9.35839 23.9017 9.28315 24.1119 9.14223C24.3221 9.00131 24.4857 8.80107 24.5819 8.56696C26.1008 4.85681 29.7238 2.55286 34.0381 2.55286C36.7455 2.55567 39.3411 3.63242 41.2555 5.54682C43.1699 7.46123 44.2467 10.0569 44.2495 12.7643C44.2495 24.618 26.8922 35.2379 23.4012 37.2526Z" fill="url(#paint0_linear_412_262)"/>
<defs>
<linearGradient id="paint0_linear_412_262" x1="-1.77282" y1="3.34532e-07" x2="58.3371" y2="16.8757" gradientUnits="userSpaceOnUse">
<stop offset="0.216705" stop-color="#7ED56F"/>
<stop offset="0.794526" stop-color="#28B485"/>
</linearGradient>
</defs>
</svg>
