<svg width="44" height="44" viewBox="0 0 44 44" fill="none" xmlns="http://www.w3.org/2000/svg">
<path d="M15.3333 37.5556L3.75556 41.4156C3.55495 41.4825 3.3413 41.5008 3.13223 41.4689C2.92316 41.437 2.72468 41.3558 2.55318 41.2321C2.38167 41.1084 2.24207 40.9456 2.14588 40.7572C2.04969 40.5689 1.99969 40.3604 2 40.1489V7.40667C2.00006 7.12697 2.08807 6.85438 2.25158 6.62746C2.41509 6.40054 2.64581 6.23079 2.91111 6.14222L15.3333 2M15.3333 37.5556L28.6667 42M15.3333 37.5556V2M15.3333 2L28.6667 6.44444M28.6667 42L41.0889 37.86C41.3545 37.7713 41.5855 37.6012 41.7491 37.3739C41.9126 37.1465 42.0004 36.8734 42 36.5933V3.84889C42 3.63759 41.9497 3.42933 41.8534 3.24127C41.757 3.05321 41.6174 2.89074 41.4459 2.76724C41.2745 2.64375 41.0761 2.56278 40.8672 2.531C40.6583 2.49921 40.4449 2.51753 40.2444 2.58444L28.6667 6.44444M28.6667 42V6.44444" stroke="url(#paint0_linear_412_260)" stroke-width="2.5" stroke-linecap="round" stroke-linejoin="round"/>
<defs>
<linearGradient id="paint0_linear_412_260" x1="0.484848" y1="2" x2="52.8904" y2="14.5743" gradientUnits="userSpaceOnUse">
<stop offset="0.216705" stop-color="#7ED56F"/>
<stop offset="0.794526" stop-color="#28B485"/>
</linearGradient>
</defs>
</svg>
