<svg width="40" height="40" viewBox="0 0 40 40" fill="none" xmlns="http://www.w3.org/2000/svg">
<path d="M39.9967 19.9975V19.9875C39.9967 14.0694 37.4202 8.75466 33.3289 5.09982L33.3089 5.08315C33.2584 5.02868 33.2019 4.98004 33.1406 4.93816L33.1372 4.93649C29.5035 1.74585 24.8306 -0.00938575 19.995 3.77484e-05C14.9421 3.77484e-05 10.3291 1.87662 6.81277 4.97315L6.83443 4.95482C6.79205 4.98697 6.75297 5.02326 6.71778 5.06315C4.60383 6.93505 2.91175 9.23646 1.75362 11.8117C0.595493 14.3869 -0.00224463 17.1788 6.33391e-06 20.0025C6.33391e-06 25.9189 2.57312 31.2337 6.66112 34.8902L6.68111 34.9069C6.73405 34.9669 6.79327 35.0211 6.85777 35.0685L6.8611 35.0702C10.4939 38.2561 15.1632 40.0087 19.995 40C24.8494 40.0074 29.5387 38.2385 33.1789 35.0269L33.1572 35.0452C35.3078 33.1754 37.0317 30.8654 38.2122 28.2716C39.3928 25.6778 40.0025 22.8607 40 20.0108V19.9992L39.9967 19.9975ZM32.5606 33.0053C31.57 32.2039 30.5046 31.4996 29.3792 30.902L29.2709 30.8487C30.2925 27.9038 30.9074 24.509 30.9657 20.9775V20.9508H38.0668C37.8274 25.5196 35.8609 29.8267 32.5656 33.0003L32.5606 33.0053ZM20.9516 30.497C23.0897 30.612 25.0879 31.082 26.9311 31.847L26.8111 31.8037C25.3346 35.1702 23.2564 37.4834 20.9516 37.9917V30.497ZM20.9516 28.5905V20.9508H29.0642C28.9999 24.1144 28.4513 27.2495 27.4377 30.2471L27.5027 30.0287C25.4336 29.1783 23.233 28.6923 20.9982 28.5921L20.9533 28.5905H20.9516ZM20.9516 19.0442V11.4045C23.2467 11.2998 25.5062 10.7974 27.6294 9.91961L27.4977 9.96794C28.4226 12.6662 28.9909 15.776 29.0642 19.0092V19.0442H20.9516ZM20.9516 9.49796V2.00662C23.2564 2.51493 25.3346 4.81816 26.8111 8.19468C25.0879 8.91132 23.0897 9.37963 20.9999 9.49629L20.9516 9.49796ZM25.7079 2.83158C27.6716 3.48661 29.5082 4.47428 31.1374 5.75145L31.0991 5.72146C30.3608 6.30143 29.5325 6.84807 28.6593 7.32305L28.5659 7.36972C27.8603 5.70433 26.8901 4.16398 25.6929 2.80825L25.7079 2.82658V2.83158ZM19.0417 2.01162V9.49796C16.9861 9.39309 14.9636 8.93649 13.0622 8.14802L13.1822 8.19135C14.6654 4.82483 16.7403 2.51326 19.0451 2.00495L19.0417 2.01162ZM11.429 7.36472C10.5257 6.87867 9.66491 6.31725 8.85593 5.68646L8.89593 5.71646C10.4777 4.47677 12.2568 3.51222 14.1588 2.86325L14.2855 2.82491C13.1196 4.14391 12.1696 5.63898 11.4707 7.25472L11.429 7.36472ZM19.0451 11.4029V19.0425H10.9324C11.0058 15.7744 11.574 12.6645 12.564 9.74795L12.499 9.96627C14.5672 10.8154 16.7666 11.3008 19.0001 11.4012L19.0451 11.4029ZM19.0451 20.9491V28.5888C16.75 28.6935 14.4905 29.196 12.3673 30.0737L12.499 30.0254C11.574 27.3289 11.0058 24.2173 10.9324 20.9841V20.9491H19.0451ZM19.0451 30.4954V37.9867C16.7403 37.4784 14.6621 35.1752 13.1856 31.7987C14.9088 31.082 16.9069 30.6154 18.9967 30.4987L19.0451 30.4954ZM14.2955 37.1618C12.3322 36.5086 10.4957 35.5233 8.86593 34.2486L8.90593 34.2786C9.6442 33.6986 10.4725 33.1519 11.3457 32.677L11.439 32.6303C12.1388 34.2964 13.109 35.8353 14.3105 37.1851L14.2955 37.1684V37.1618ZM28.5676 32.6286C29.5342 33.1536 30.3625 33.6986 31.1407 34.3069L31.1007 34.2769C29.519 35.5166 27.7398 36.4811 25.8378 37.1301L25.7112 37.1684C26.877 35.85 27.827 34.3555 28.526 32.7403L28.5676 32.632V32.6286ZM38.0668 19.0442H30.9657C30.9147 15.5959 30.3196 12.1774 29.2026 8.91465L29.2709 9.14464C30.4481 8.52477 31.5627 7.79251 32.5989 6.95807L32.5589 6.98807C35.8474 10.1496 37.8146 14.4408 38.0635 18.9959L38.0652 19.0425L38.0668 19.0442ZM7.43605 6.98973C8.39597 7.7697 9.47421 8.48467 10.6175 9.09298L10.7258 9.14631C9.70419 12.0912 9.08925 15.486 9.03092 19.0175V19.0442H1.92818C2.16765 14.4754 4.13407 10.1683 7.42938 6.99473L7.43605 6.98973ZM1.92984 20.9508H9.03092C9.082 24.3991 9.67705 27.8176 10.7941 31.0804L10.7258 30.8504C9.47421 31.5153 8.39764 32.2303 7.39772 33.0369L7.43772 33.0069C4.14922 29.8454 2.1821 25.5542 1.93318 20.9991L1.93151 20.9525L1.92984 20.9508Z" fill="url(#paint0_linear_412_254)"/>
<defs>
<linearGradient id="paint0_linear_412_254" x1="-1.51515" y1="3.34532e-07" x2="50.8904" y2="12.5743" gradientUnits="userSpaceOnUse">
<stop offset="0.216705" stop-color="#7ED56F"/>
<stop offset="0.794526" stop-color="#28B485"/>
</linearGradient>
</defs>
</svg>
